<svg fill="none" height="27" viewBox="0 0 135 27" width="135" xmlns="http://www.w3.org/2000/svg"><ellipse cx="9.72229" cy="9.9101" fill="#000" rx="9.62391" ry="9.61005"/><g clip-rule="evenodd" fill-rule="evenodd"><path d="m9.41711 6.07102c2.04529.10575 4.07429.35738 5.88549 1.48234 1.0848.67381 1.7287 1.6436 1.7479 2.94024.0301 2.0336-1.4211 3.0777-3.3224 2.8496-.7996-.1207-1.5905-.293-2.3678-.5157-1.37568-.3502-2.73565-.2489-4.09516.0789-.65216.1573-1.28855.3883-1.96028.4544-1.26167.1243-2.58274-.3204-3.04313-1.5626-.60598-1.5596-.02163-3.32929 1.39444-4.2231 1.74594-1.13532 3.72234-1.40316 5.76094-1.50408z" fill="#fff"/><path d="m14.6335 9.9999c.0105.7383-.497 1.3672-1.1115 1.3774-.5455.009-1.0856-.6189-1.0943-1.2721-.0095-.71589.48-1.31551 1.0943-1.34024.6147-.02475 1.1012.51587 1.1115 1.23494z" fill="#000"/><path d="m6.54247 9.9999c.01052.7383-.49695 1.3672-1.1115 1.3774-.54546.009-1.08562-.6189-1.0943-1.2721-.00952-.71589.48006-1.31551 1.0943-1.34024.61467-.02475 1.10125.51587 1.1115 1.23494z" fill="#000"/><path d="m9.22063 26.1306c-3.17414-1.9071-5.25743-4.097-6.62475-6.2825-.44135-.7054.39416-1.4984 1.08973-1.0408 3.60489 2.365 8.27409 2.3582 11.87209-.0171.6946-.4599 1.5329.3318 1.0924 1.0382-1.3672 2.192-3.4536 4.3894-6.6373 6.3022-.24399.1454-.54818.1454-.79217 0z" fill="#74a352"/><path d="m26.8151 19.0869 4.3192-10.31104h2.0444l4.3193 10.31104h-2.318l-.9215-2.2962h-4.2616l-.9214 2.2962zm3.9737-4.2853h2.6779l-1.339-3.32zm7.8662 4.2853v-10.23791h3.9305c1.5742 0 2.8603.48508 3.8585 1.45521.9983.9702 1.4974 2.1914 1.4974 3.6638 0 1.4625-.5015 2.6813-1.5045 3.6564-1.0031.975-2.2868 1.4625-3.8514 1.4625zm2.2172-2.0329h1.7133c.9119 0 1.6461-.2852 2.2028-.8556s.8351-1.3139.8351-2.2304c0-.9068-.2808-1.6479-.8423-2.2231-.5615-.5753-1.2933-.8629-2.1956-.8629h-1.7133zm13.4957 2.2085c-1.5645 0-2.8387-.4973-3.8225-1.4919-.9838-.9945-1.4757-2.2621-1.4757-3.8026 0-1.4724.5039-2.7228 1.5117-3.7515 1.0078-1.02869 2.2652-1.54302 3.7721-1.54302.8735 0 1.6125.11457 2.2172.3437.6047.22914 1.1854.58259 1.7421 1.06032l-1.3965 1.7112c-.4224-.3607-.8303-.624-1.2238-.7897-.3935-.1658-.8639-.2487-1.411-.2487-.8062 0-1.4901.3145-2.0516.9434s-.8422 1.387-.8422 2.2743c0 .936.2855 1.7112.8566 2.3254.5711.6143 1.303.9215 2.1956.9215.8255 0 1.5213-.2048 2.0876-.6143v-1.4626h-2.2316v-1.9452h4.3769v4.4462c-1.2574 1.0823-2.6924 1.6235-4.3049 1.6235zm10.6397-.0147c-1.3725 0-2.4427-.3875-3.2106-1.1627s-1.1518-1.9038-1.1518-3.3858v-5.85031h2.2172v5.79171c0 .8191.1896 1.4455.5687 1.8794s.9142.6509 1.6053.6509 1.2262-.2096 1.6053-.6289c.3792-.4193.5687-1.0287.5687-1.8282v-5.86491h2.2172v5.77711c0 1.5211-.3911 2.6716-1.1734 3.4517-.7822.78-1.8644 1.17-3.2466 1.17zm5.0209-.1609 4.3193-10.31104h2.0444l4.3192 10.31104h-2.318l-.9214-2.2962h-4.2616l-.9215 2.2962zm3.9737-4.2853h2.6779l-1.3389-3.32zm7.8663 4.2853v-10.23791h4.6072c1.2766 0 2.2556.34614 2.9371 1.03842.5759.58499.8638 1.37479.8638 2.36939 0 1.5698-.7199 2.6277-2.1596 3.1737l2.4619 3.6564h-2.5915l-2.1884-3.2761h-1.7133v3.2761zm2.2172-5.2652h2.246c.5375 0 .955-.1341 1.2526-.4022.2975-.2681.4463-.6265.4463-1.075 0-.4778-.1536-.841-.4607-1.0896-.3072-.2486-.7343-.3729-1.2814-.3729h-2.2028zm7.7943 5.2652v-10.23791h3.9305c1.5742 0 2.8603.48508 3.8585 1.45521.998.9702 1.497 2.1914 1.497 3.6638 0 1.4625-.501 2.6813-1.5042 3.6564-1.003.975-2.2867 1.4625-3.8513 1.4625zm2.2172-2.0329h1.7133c.9118 0 1.6461-.2852 2.2028-.8556s.8351-1.3139.8351-2.2304c0-.9068-.2808-1.6479-.8423-2.2231-.5615-.5753-1.2934-.8629-2.1956-.8629h-1.7133z" fill="#000"/><path d="m110.557 18.9411 4.175-9.81962h-1.179l-3.468 8.39892-3.454-8.39892h-1.22l4.175 9.81962zm7.184-.0696v-3.4404h2.358c1.091 0 2-.2786 2.726-.8357.725-.5571 1.088-1.3418 1.088-2.3539 0-.9657-.328-1.7272-.984-2.28431-.657-.55714-1.54-.83571-2.65-.83571h-3.633v9.75002zm2.4-4.4432h-2.4v-4.29h2.455c.805 0 1.44.1834 1.907.5501.467.3668.701.8891.701 1.567 0 .6593-.243 1.1863-.728 1.5809-.486.3946-1.131.592-1.935.592zm6.838 4.4432v-7.995l6.269 7.995h.874v-9.75002h-1.068v7.81392l-6.117-7.81392h-1.026v9.75002z" fill="#000"/></g></svg>