<svg fill="none" height="26" viewBox="0 0 135 26" width="135" xmlns="http://www.w3.org/2000/svg"><g clip-rule="evenodd" fill-rule="evenodd"><g fill="#f3f3f3"><path d="m9.69405 19.2648c5.35385 0 9.69405-4.3125 9.69405-9.63238 0-5.31984-4.3402-9.63242-9.69405-9.63242-5.35387 0-9.69405 4.31258-9.69405 9.63242 0 5.31988 4.34018 9.63238 9.69405 9.63238zm5.62095-11.99461c-1.8244-1.12757-3.8682-1.37978-5.92837-1.48578-2.05346.10115-4.04426.36961-5.80292 1.50758-1.42639.89589-2.015 2.66972-1.40461 4.23291.46375 1.2451 1.79444 1.6909 3.06531 1.5663.46749-.0458.91798-.1705 1.36846-.2952.20153-.0558.40306-.1116.60611-.1603 1.36942-.3286 2.7393-.4301 4.12502-.079.783.2232 1.5796.3958 2.385.5168 1.9152.2287 3.377-.8179 3.3467-2.8563-.0193-1.29957-.668-2.27163-1.7607-2.94701z"/><path d="m14.641 9.72244c.0106.74006-.5006 1.37036-1.1196 1.38056-.5495.0091-1.0936-.6203-1.1023-1.27499-.0096-.71759.4835-1.31861 1.1023-1.34339.6191-.02481 1.1092.51708 1.1196 1.23782z"/><path d="m6.49106 9.72244c.0106.74006-.50058 1.37036-1.1196 1.38056-.54943.0091-1.09354-.6203-1.10228-1.27499-.00959-.71759.48356-1.31861 1.10228-1.34339.61915-.02481 1.10928.51708 1.1196 1.23782z"/></g><path d="m9.18882 25.8907c-3.19728-1.9115-5.29575-4.1066-6.67304-6.2971-.44456-.7071.39704-1.5019 1.09768-1.0432 3.63116 2.3704 8.33434 2.3637 11.95864-.0172.6996-.4609 1.5441.3326 1.1003 1.0406-1.3772 2.1971-3.4787 4.3996-6.68565 6.3169-.24576.1457-.55216.1457-.79793 0z" fill="#74a352"/><path d="m26.9114 18.8306 4.3507-10.33505h2.0593l4.3507 10.33505h-2.3349l-.9281-2.3015h-4.2927l-.9282 2.3015zm4.0026-4.2953h2.6975l-1.3488-3.3277zm7.9236 4.2953v-10.26176h3.9592c1.5856 0 2.8811.48621 3.8866 1.45866 1.0055.9724 1.5083 2.1965 1.5083 3.6722 0 1.466-.5052 2.6877-1.5155 3.665-1.0104.9773-2.3035 1.4659-3.8794 1.4659zm2.2334-2.0377h1.7258c.9185 0 1.6581-.2858 2.2188-.8576.5608-.5717.8412-1.3169.8412-2.2356 0-.9089-.2828-1.6516-.8484-2.2282s-1.3028-.865-2.2116-.865h-1.7258zm13.594 2.2137c-1.5759 0-2.8593-.4985-3.8503-1.4953-.991-.9969-1.4865-2.2674-1.4865-3.8116 0-1.4757.5076-2.7291 1.5227-3.76017 1.0152-1.03107 2.2817-1.5466 3.7996-1.5466.8799 0 1.6243.11483 2.2334.3445s1.194.58394 1.7548 1.06283l-1.4067 1.71514c-.4254-.3616-.8363-.6254-1.2327-.7916-.3964-.1661-.8702-.2492-1.4213-.2492-.8121 0-1.501.3152-2.0666.9456-.5655.6303-.8483 1.3902-.8483 2.2795 0 .9383.2876 1.7152.8628 2.3309.5753.6157 1.3125.9236 2.2117.9236.8314 0 1.5324-.2052 2.1028-.6157v-1.466h-2.2479v-1.9497h4.4087v4.4565c-1.2665 1.0849-2.7119 1.6273-4.3362 1.6273zm10.7173-.0147c-1.3826 0-2.4606-.3885-3.2341-1.1654-.7734-.777-1.1601-1.9082-1.1601-3.3938v-5.86386h2.2333v5.80526c0 .8209.191 1.4489.5729 1.8838s.9209.6523 1.617.6523 1.2351-.2101 1.617-.6303c.3819-.4203.5728-1.0311.5728-1.8325v-5.87856h2.2334v5.79056c0 1.5246-.394 2.6779-1.182 3.4597-.7879.7819-1.878 1.1728-3.2702 1.1728zm5.0575-.1613 4.3507-10.33505h2.0593l4.3507 10.33505h-2.3349l-.9281-2.3015h-4.2927l-.9282 2.3015zm4.0026-4.2953h2.6975l-1.3488-3.3277zm7.9236 4.2953v-10.26176h4.6408c1.2859 0 2.272.34695 2.9585 1.04084.5801.58642.8701 1.37802.8701 2.37492 0 1.5734-.7251 2.6338-2.1753 3.1811l2.4799 3.6649h-2.6105l-2.2043-3.2837h-1.7258v3.2837zm2.2334-5.2775h2.2624c.5414 0 .962-.1343 1.2617-.4031s.4495-.6279.4495-1.0775c0-.4789-.1546-.8429-.464-1.0921s-.7396-.3739-1.2907-.3739h-2.2189zm7.8511 5.2775v-10.26176h3.9592c1.5856 0 2.8811.48621 3.8863 1.45866 1.006.9724 1.509 2.1965 1.509 3.6722 0 1.466-.506 2.6877-1.516 3.665-1.0103.9773-2.3034 1.4659-3.8793 1.4659zm2.2334-2.0377h1.7258c.9184 0 1.658-.2858 2.2188-.8576.5608-.5717.8411-1.3169.8411-2.2356 0-.9089-.2827-1.6516-.8483-2.2282s-1.3028-.865-2.2116-.865h-1.7258z" fill="#f3f3f3"/><path d="m111.263 18.6845 4.206-9.84253h-1.188l-3.493 8.41853-3.478-8.41853h-1.23l4.205 9.84253zm7.237-.0698v-3.4484h2.375c1.099 0 2.014-.2792 2.746-.8377.731-.5584 1.096-1.3449 1.096-2.3594 0-.9679-.33-1.7311-.992-2.28957-.661-.55844-1.55-.83766-2.668-.83766h-3.66v9.77273zm2.417-4.4536h-2.417v-4.29998h2.473c.81 0 1.451.18378 1.921.55148.47.3676.706.8912.706 1.5706 0 .6608-.245 1.189-.734 1.5846-.489.3955-1.138.5933-1.949.5933zm6.888 4.4536v-8.0136l6.315 8.0136h.88v-9.77273h-1.076v7.83213l-6.161-7.83213h-1.034v9.77273z" fill="#f3f3f3"/></g></svg>