<svg width="24" height="24" viewBox="0 0 24 24" xmlns="http://www.w3.org/2000/svg">
    <path fill-rule="evenodd" clip-rule="evenodd" d="M8.6238 11.93C8.88898 11.6118 9.3619 11.5688 9.68011 11.834L12.0284 13.7909L14.3767 11.834C14.6949 11.5688 15.1678 11.6118 15.433 11.93C15.6982 12.2482 15.6552 12.7212 15.337 12.9863L12.5085 15.3434C12.2304 15.5751 11.8264 15.5751 11.5483 15.3434L8.71983 12.9863C8.40162 12.7212 8.35863 12.2482 8.6238 11.93Z"/>
    <path fill-rule="evenodd" clip-rule="evenodd" d="M12 3.13623C12.4142 3.13623 12.75 3.47202 12.75 3.88623V13.3862C12.75 13.8004 12.4142 14.1362 12 14.1362C11.5858 14.1362 11.25 13.8004 11.25 13.3862V3.88623C11.25 3.47202 11.5858 3.13623 12 3.13623Z"/>
    <path fill-rule="evenodd" clip-rule="evenodd" d="M4.25 6C4.25 5.0335 5.0335 4.25 6 4.25H7.33333C7.74755 4.25 8.08333 4.58579 8.08333 5C8.08333 5.41421 7.74755 5.75 7.33333 5.75H6C5.86193 5.75 5.75 5.86193 5.75 6V18C5.75 18.1381 5.86193 18.25 6 18.25H18C18.1381 18.25 18.25 18.1381 18.25 18V6C18.25 5.86193 18.1381 5.75 18 5.75H16.6667C16.2525 5.75 15.9167 5.41421 15.9167 5C15.9167 4.58579 16.2525 4.25 16.6667 4.25H18C18.9665 4.25 19.75 5.0335 19.75 6V18C19.75 18.9665 18.9665 19.75 18 19.75H6C5.0335 19.75 4.25 18.9665 4.25 18V6Z"/>
</svg>
