<svg width="24" height="24" viewBox="0 0 24 24" xmlns="http://www.w3.org/2000/svg">
<path fill-rule="evenodd" clip-rule="evenodd" d="M7.98493 10.441C8.80465 8.46637 10.6599 7.48351 12.0608 7.48153C12.036 7.4845 12.2063 7.50632 20.9915 7.50632C17.8978 1.55562 12.0687 2.00787 12.0687 2.00787C6.17323 2.23995 3.86455 6.54727 3.86455 6.54727L7.93147 10.5442L7.98493 10.441ZM7.81069 13.3291C6.63853 11.2949 4.47043 7.60153 3.86455 6.54727C-0.0954385 12.1627 3.48341 17.083 3.48341 17.083C6.52864 21.915 11.0995 21.9913 11.3955 21.9913L12.7151 16.5147C10.4876 16.844 8.40271 15.4505 7.81069 13.3291ZM20.9915 7.50632L15.5455 9.20822C16.4177 10.3468 17.1612 12.9968 15.406 15.03C14.2526 17.0314 12.0152 20.9172 11.3955 21.9913C18.0126 22.2432 20.7133 16.9253 20.7133 16.9253C23.3507 11.8979 21.141 7.81278 20.9915 7.50632ZM15.7426 12.138C15.7426 14.1711 14.0972 15.8224 12.0647 15.8224C10.0352 15.8224 8.38687 14.1711 8.38687 12.138C8.38687 10.1048 10.0322 8.45348 12.0647 8.45348C14.0942 8.45348 15.7426 10.1018 15.7426 12.138Z"/>
</svg>
