<svg width="24" height="24" xmlns="http://www.w3.org/2000/svg"><path fill-rule="evenodd" clip-rule="evenodd" d="M8.659 17.52c1.423 1.848 3.54 3.02 5.904 3.02a7.16 7.16 0 003.977-1.215 9.888 9.888 0 01-7.087 2.515C6.19 21.593 2 17.249 2 11.926 2 6.444 6.444 2 11.926 2h.037c2.527.01 4.83.963 6.578 2.527a7.16 7.16 0 00-3.978-1.216c-2.364 0-4.48 1.172-5.904 3.021-1.098 1.296-1.809 3.21-1.857 5.36v.467c.048 2.15.76 4.065 1.857 5.36zM9 6.805C10.403 5.089 12.489 4 14.818 4c1.433 0 2.774.412 3.92 1.129C20.74 6.817 22 9.269 22 11.999c0 2.732-1.26 5.184-3.262 6.872A7.366 7.366 0 0114.818 20C12.49 20 10.403 18.911 9 17.194c.898.998 2.057 1.6 3.323 1.6 2.847 0 5.155-3.042 5.155-6.794 0-3.753-2.308-6.795-5.155-6.795-1.266 0-2.426.602-3.323 1.6z"/></svg>
