<svg width="24" height="24" viewBox="0 0 24 24" xmlns="http://www.w3.org/2000/svg">
<path fill-rule="evenodd" clip-rule="evenodd" d="M22 11.6127C22 11.167 21.8889 10.4985 21.7778 10.0528C21.4444 8.15849 20.4444 6.48708 19.2222 5.14995C19 4.81567 18.5556 4.48139 18.1111 4.14711C16.8889 3.14426 15.4444 2.4757 13.7778 2.14142C10.4444 1.58428 7.11111 2.69856 4.88889 5.03853V4.9271C4.77778 4.70425 4.77778 4.70425 4.66667 4.70425C4.55556 4.48139 4.55556 4.36996 4.44444 4.25854C4.44444 4.03568 4.33333 3.81283 4.33333 3.58997C4 3.7014 4 4.03568 3.88889 4.25854C3.66667 4.48139 3.44444 4.81567 3.44444 5.14995C3.33333 5.37281 3.11111 6.37565 3.33333 6.48708C3.33333 6.48708 3.33333 6.48708 3.44444 6.48708C3.44444 6.59851 3.44444 6.70994 3.44444 6.82136C3.22222 7.04422 3.11111 7.15564 3.11111 7.26707C2.77778 7.93564 2.44444 8.49277 2.33333 9.16133C2.33333 9.38419 2.33333 9.49562 2.33333 9.60704V9.49562C2.11111 9.71847 2.11111 10.0528 2 10.2756C2.11111 10.2756 2.11111 10.1642 2.22222 10.1642C1.66667 13.0613 2.44444 16.0698 4.22222 18.2984C6.88889 21.5298 11.4444 22.8669 15.4444 21.4183C19.3333 19.9698 22 16.1812 22 11.947C22 11.8356 22 11.7242 22 11.6127ZM13.6667 3.14426C15.3333 3.47855 16.8889 4.25854 18.1111 5.37281C18.2222 5.48424 18.3333 5.70709 18.3333 5.70709C18 5.37281 17.2222 4.81567 16.7778 5.03853C16.8889 5.37281 18.2222 7.04422 18.3333 7.15564C18.3333 7.15564 18.6667 8.6042 18.7778 8.71563C18.7778 8.93848 18 11.8356 18 12.2813C18 12.3927 17 14.3984 17.1111 14.3984C16.7778 15.1784 16.4444 15.1784 16.3333 15.2898C16.2222 15.2898 15.5556 15.5127 14.7778 15.7355C14.1111 15.847 13.3333 16.0698 12.7778 15.9584C12.4444 15.9584 12 15.9584 11.6667 15.7355C11.5556 15.6241 10.6667 15.1784 10.4444 15.067C10.1111 14.9555 9.88889 14.7327 9.66667 14.5098C10 14.5098 10.6667 14.5098 10.8889 14.5098C11.5556 14.3984 14.4444 13.3956 14.3333 12.9499C14.3333 12.6156 13.7778 12.3927 13.5556 12.1699C13.2222 12.0584 11.8889 12.2813 11.3333 12.5042C11.3333 12.5042 9.22222 11.947 8.66667 11.5013C8.66667 11.3899 8.55556 10.7213 8.55556 10.6099C8.44444 10.4985 8.88889 10.1642 8.88889 10.1642C8.88889 10.1642 10 9.04991 10 8.93848C10.2222 8.93848 10.4444 8.71563 10.5556 8.6042C10.4444 8.6042 10.6667 8.49277 11 8.26992C11.3333 8.04706 11.5556 8.04706 11.5556 7.71278C11.5556 7.71278 12.1111 6.70994 11.4444 6.82136C11.4444 6.82136 10.4444 6.70994 10.1111 6.70994C9.77778 6.93279 9.66667 6.82136 9.33333 6.70994C9.33333 6.70994 9.11111 6.48708 9.11111 6.37565C9.22222 6.1528 10 4.48139 10.3333 4.36996C10.1111 3.92426 9 4.25854 8.77778 4.59282C8.77778 4.59282 7.88889 5.26138 7.44444 5.37281C7.44444 5.26138 6.88889 5.14995 6.33333 5.14995C8.33333 3.47855 11 2.69856 13.6667 3.14426Z"/>
</svg>
