<svg width="24" height="24" xmlns="http://www.w3.org/2000/svg"><path d="M12 2C6.485 2 2 6.485 2 12s4.485 10 10 10 10-4.485 10-10S17.515 2 12 2zm-1.563 6.01a.49.49 0 01.673-.174l.437.254a.492.492 0 01.176.674l-.433.741-1.286-.752.433-.743zm-4.816 3.261h2.672l-.851 1.439H5.62v-1.439zm.643 5.544a.1.1 0 01-.118.013.097.097 0 01-.044-.108l.621-2.353 1.286.753-1.745 1.695zm.62-2.726L9.9 8.933l1.286.752L8.17 14.84l-1.286-.752zm2.764-1.379l.798-1.437h3.08l.8 1.437H9.647zm1.562-5.919a.49.49 0 01.179-.672l.399-.233a.494.494 0 01.672.178l3.41 5.868-1.251.727-3.409-5.868zm3.548 6.109l1.25-.727.724 1.245-1.25.726-.724-1.244zm2.63 3.876c-.028.04-.101.007-.123-.027-.058-.092-.007-.218-.19-.498-.338-.515-.785-.413-1.216-1.138-.077-.127-.335-.712 0-.91.178-.107.48-.287.684-.4.344-.197.66.213.836.47.377.55.53 1.786.01 2.503zm.972-4.066H16.57l-.783-1.437h2.574v1.437z" /></svg>
