<svg width="24" height="24" viewBox="0 0 24 24" xmlns="http://www.w3.org/2000/svg">
<path fill-rule="evenodd" clip-rule="evenodd" d="M12.9957 8.67524V8.51238L12.4895 8.54714C12.3462 8.55619 12.2385 8.58667 12.1662 8.6381C12.0938 8.69 12.0576 8.76191 12.0576 8.85381C12.0576 8.94334 12.0933 9.01476 12.1652 9.06762C12.2366 9.12095 12.3328 9.14714 12.4528 9.14714C12.5295 9.14714 12.6014 9.13524 12.6676 9.11191C12.7338 9.08857 12.7919 9.05572 12.8404 9.01381C12.889 8.97238 12.9271 8.92286 12.9543 8.86524C12.9819 8.80762 12.9957 8.74429 12.9957 8.67524ZM12 2.11905C6.48616 2.11905 2.11902 6.48619 2.11902 12C2.11902 17.5143 6.48616 21.881 12 21.881C17.5138 21.881 21.8809 17.5143 21.8809 12C21.8809 6.48619 17.5143 2.11905 12 2.11905ZM13.9181 7.97572C13.9647 7.84476 14.0304 7.73238 14.1157 7.63905C14.2009 7.54572 14.3033 7.47381 14.4233 7.42333C14.5433 7.37286 14.6771 7.34762 14.8243 7.34762C14.9571 7.34762 15.0771 7.36762 15.1838 7.40714C15.2909 7.44667 15.3824 7.5 15.459 7.56714C15.5357 7.63429 15.5966 7.71238 15.6414 7.80191C15.6862 7.89143 15.7128 7.98619 15.7219 8.08572H15.3252C15.3152 8.03095 15.2971 7.97953 15.2714 7.93238C15.2457 7.88524 15.2119 7.84429 15.17 7.80953C15.1276 7.77476 15.0781 7.74762 15.0214 7.7281C14.9643 7.7081 14.9004 7.69857 14.8285 7.69857C14.7443 7.69857 14.6676 7.71572 14.5995 7.74953C14.5309 7.78333 14.4724 7.83143 14.4238 7.89333C14.3752 7.95524 14.3376 8.03095 14.3109 8.11953C14.2838 8.20857 14.2704 8.30714 14.2704 8.41572C14.2704 8.5281 14.2838 8.62905 14.3109 8.71762C14.3376 8.80667 14.3757 8.88143 14.4252 8.94286C14.4743 9.00429 14.5338 9.05143 14.6028 9.08381C14.6719 9.11619 14.7481 9.13286 14.8309 9.13286C14.9666 9.13286 15.0771 9.10095 15.1628 9.03714C15.2485 8.97333 15.3038 8.88 15.3295 8.75714H15.7266C15.7152 8.86572 15.6852 8.96476 15.6366 9.05429C15.5881 9.14381 15.5252 9.22 15.4481 9.28333C15.3704 9.34667 15.2795 9.39572 15.1747 9.43C15.07 9.46429 14.9547 9.48191 14.8295 9.48191C14.6809 9.48191 14.5471 9.45714 14.4266 9.4081C14.3066 9.35905 14.2033 9.2881 14.1176 9.19619C14.0319 9.10429 13.9657 8.99238 13.919 8.86048C13.8724 8.72857 13.849 8.58048 13.849 8.41524C13.8481 8.25381 13.8714 8.10714 13.9181 7.97572ZM8.27378 7.37476H8.67092V7.72762H8.67854C8.70283 7.66905 8.73473 7.61619 8.77378 7.57048C8.81283 7.52429 8.85759 7.48524 8.90902 7.45238C8.95997 7.41953 9.01664 7.39476 9.07759 7.37762C9.13902 7.36048 9.20378 7.35191 9.2714 7.35191C9.41711 7.35191 9.54045 7.38667 9.64045 7.45619C9.74092 7.52572 9.81235 7.62572 9.85426 7.75619H9.86426C9.89092 7.69334 9.92616 7.63714 9.96949 7.58762C10.0128 7.5381 10.0628 7.49524 10.119 7.46C10.1752 7.42476 10.2371 7.3981 10.3043 7.37953C10.3714 7.36095 10.4419 7.35191 10.5162 7.35191C10.6185 7.35191 10.7114 7.3681 10.7952 7.40095C10.879 7.43381 10.9504 7.47953 11.01 7.53905C11.0695 7.59857 11.1152 7.67095 11.1471 7.75572C11.179 7.84048 11.1952 7.93476 11.1952 8.03857V9.4581H10.7809V8.1381C10.7809 8.00143 10.7457 7.89524 10.6752 7.82048C10.6052 7.74572 10.5047 7.7081 10.3743 7.7081C10.3104 7.7081 10.2519 7.71953 10.1985 7.74191C10.1457 7.76429 10.0995 7.79572 10.0614 7.83619C10.0228 7.87619 9.99283 7.92476 9.9714 7.98095C9.94949 8.03714 9.93854 8.09857 9.93854 8.16524V9.4581H9.52997V8.10381C9.52997 8.04381 9.52045 7.98953 9.50188 7.94095C9.4833 7.89238 9.45711 7.85095 9.42235 7.81619C9.38807 7.78143 9.34569 7.75524 9.29664 7.73667C9.24711 7.7181 9.19188 7.70857 9.13045 7.70857C9.06664 7.70857 9.00759 7.72048 8.95283 7.74429C8.89854 7.7681 8.85188 7.80095 8.81283 7.84286C8.77378 7.88524 8.7433 7.93476 8.72188 7.99238C8.70092 8.04953 8.66664 8.11238 8.66664 8.18V9.45762H8.27378V7.37476ZM9.17521 17.3457C7.35378 17.3457 6.2114 16.08 6.2114 14.06C6.2114 12.04 7.35378 10.77 9.17521 10.77C10.9966 10.77 12.1347 12.04 12.1347 14.06C12.1347 16.0795 10.9966 17.3457 9.17521 17.3457ZM12.5476 9.45286C12.4804 9.47 12.4119 9.47857 12.3414 9.47857C12.2376 9.47857 12.1428 9.46381 12.0566 9.43429C11.97 9.40476 11.8962 9.36333 11.8343 9.30953C11.7724 9.25572 11.7238 9.19095 11.6895 9.11476C11.6547 9.03857 11.6376 8.95381 11.6376 8.86048C11.6376 8.67762 11.7057 8.53476 11.8419 8.43191C11.9781 8.32905 12.1752 8.26905 12.4338 8.25238L12.9957 8.22V8.05905C12.9957 7.93905 12.9576 7.84714 12.8814 7.78476C12.8052 7.72238 12.6976 7.69095 12.5581 7.69095C12.5019 7.69095 12.449 7.6981 12.4004 7.71191C12.3519 7.72619 12.309 7.74619 12.2719 7.77238C12.2347 7.79857 12.2038 7.83 12.18 7.86667C12.1557 7.90286 12.139 7.94381 12.13 7.98857H11.7404C11.7428 7.89667 11.7657 7.81143 11.8085 7.73333C11.8514 7.65524 11.9095 7.58762 11.9833 7.53C12.0571 7.47238 12.1433 7.42762 12.2433 7.39572C12.3433 7.36381 12.4519 7.34762 12.5695 7.34762C12.6962 7.34762 12.8109 7.36333 12.9138 7.39572C13.0166 7.4281 13.1047 7.47333 13.1776 7.53286C13.2504 7.59238 13.3066 7.66381 13.3462 7.74762C13.3857 7.83143 13.4057 7.92524 13.4057 8.02857V9.45762H13.009V9.11048H12.999C12.9695 9.16667 12.9324 9.21762 12.8871 9.26286C12.8414 9.3081 12.7904 9.34714 12.7338 9.37905C12.6766 9.41095 12.6147 9.43572 12.5476 9.45286ZM15.1681 17.3457C13.779 17.3457 12.8347 16.6181 12.769 15.4757H13.6733C13.7438 16.1286 14.3747 16.561 15.239 16.561C16.0681 16.561 16.6638 16.1286 16.6638 15.5376C16.6638 15.0262 16.3019 14.7171 15.4643 14.5057L14.6481 14.3029C13.4747 14.0119 12.9414 13.4781 12.9414 12.6005C12.9414 11.52 13.8852 10.77 15.2304 10.77C16.5447 10.77 17.4619 11.5243 17.4971 12.609H16.6019C16.54 11.9562 16.0066 11.5548 15.2124 11.5548C14.4228 11.5548 13.8762 11.9605 13.8762 12.5471C13.8762 13.01 14.22 13.2838 15.0581 13.4952L15.7462 13.6671C17.0562 13.9848 17.5943 14.501 17.5943 15.4271C17.5938 16.609 16.659 17.3457 15.1681 17.3457ZM9.17521 11.581C7.92711 11.581 7.14664 12.5381 7.14664 14.0595C7.14664 15.5767 7.92711 16.5338 9.17521 16.5338C10.419 16.5338 11.2038 15.5767 11.2038 14.0595C11.2043 12.5381 10.419 11.581 9.17521 11.581Z"/>
</svg>
