<svg width="24" height="24" viewBox="0 0 24 24" xmlns="http://www.w3.org/2000/svg">
<path fill-rule="evenodd" clip-rule="evenodd" d="M13.8402 13.691C13.8644 13.6679 13.8856 13.6476 13.9 13.6289C14.2953 13.1149 14.5094 12.493 14.5094 12.0735C14.5094 12.0447 14.509 12.0129 14.5081 11.9784L14.5079 11.9789C14.5079 11.9745 14.5078 11.9701 14.5077 11.9657C14.5067 11.931 14.5052 11.8937 14.503 11.854C14.472 11.3723 14.3015 10.9089 14.0111 10.5211C13.7777 10.2084 13.475 9.95397 13.1268 9.77778C12.7787 9.60159 12.3944 9.50842 12.0042 9.50558C11.4716 9.49581 11.0661 9.68757 10.8191 9.80442L10.7902 9.81806L10.7899 9.81819L10.7902 9.81818C10.4058 10.0274 10.0842 10.3354 9.85854 10.7105C9.63291 11.0855 9.51146 11.514 9.50673 11.9517C9.50673 15.2148 12.7268 17.7576 16.4234 17.7576C17.381 17.7595 18.3311 17.5885 19.2279 17.2529C19.5097 17.1473 19.7847 17.0244 20.0513 16.885C20.112 16.8512 20.1823 16.8387 20.2509 16.8493C20.3196 16.86 20.3827 16.8932 20.4304 16.9437C20.4781 16.9943 20.5075 17.0592 20.5141 17.1284C20.5208 17.1975 20.5041 17.2669 20.4669 17.3256C19.2514 19.2515 17.4165 20.7063 15.2641 21.4504L15.1618 21.4847C14.971 21.545 14.7369 21.6055 14.4866 21.6592C14.7175 21.6158 14.9461 21.5586 15.1712 21.4876C12.8462 22.2626 10.3177 22.1569 8.06559 21.1904C5.81351 20.2239 3.99478 18.4641 2.95474 16.245C2.31836 14.8751 1.99518 13.3807 2.00871 11.8703C2.00871 11.6558 2.02463 11.439 2.05552 11.2215C2.02242 11.4257 2.00367 11.6335 2.00021 11.8444C2.04084 9.22205 3.11014 6.72039 4.978 4.8788C6.84926 3.03386 9.37156 1.99968 11.9994 1.99994C15.8851 1.99994 19.4583 3.86232 21.1136 7.1004C21.1272 7.12712 21.1417 7.15559 21.1572 7.18579C21.4397 7.73823 22.0188 8.87072 21.9995 10.5307C21.9978 11.3667 21.7775 12.1878 21.3605 12.9124C20.9435 13.6371 20.3443 14.2401 19.6223 14.6616C18.9066 15.0867 18.09 15.3119 17.2576 15.3139C17.2576 15.3139 17.2569 15.314 17.2557 15.314C17.1829 15.3171 15.1159 15.4042 14.011 14.6359C13.775 14.471 13.6422 14.275 13.6422 14.0711C13.6422 13.8804 13.7582 13.7695 13.8402 13.691ZM2 11.8587C2.00006 11.8539 2.00013 11.8492 2.00021 11.8444Z"/>
</svg>
